<mxfile host="app.diagrams.net" modified="2024-05-13T01:21:26.486Z" agent="Mozilla/5.0 (Windows NT 10.0; Win64; x64) AppleWebKit/537.36 (KHTML, like Gecko) Chrome/124.0.0.0 Safari/537.36" version="24.2.8" etag="rmOpoq77enwAddeIu3s5" type="github">
  <diagram name="第 1 页" id="0gWB2MNKJDAS_mnSoSYY">
    <mxGraphModel>
      <root>
        <mxCell id="0" />
        <mxCell id="1" parent="0" />
      </root>
    </mxGraphModel>
  </diagram>
</mxfile>
